<svg width="30" height="30" viewBox="0 0 30 30" fill="none" xmlns="http://www.w3.org/2000/svg">
<g id="Outline / Arrows / Double Alt Arrow Right">
<path id="Vector (Stroke)" fill-rule="evenodd" clip-rule="evenodd" d="M8.41416 5.91688C8.79155 5.5934 9.35972 5.63711 9.6832 6.0145L16.8832 14.4145C17.1721 14.7515 17.1721 15.2489 16.8832 15.5859L9.6832 23.9859C9.35972 24.3633 8.79155 24.407 8.41416 24.0835C8.03676 23.7601 7.99306 23.1919 8.31654 22.8145L15.0145 15.0002L8.31654 7.18592C7.99306 6.80853 8.03676 6.24036 8.41416 5.91688ZM13.2144 5.91701C13.5918 5.59353 14.16 5.63723 14.4834 6.01462L21.6834 14.4146C21.9723 14.7517 21.9723 15.249 21.6834 15.586L14.4834 23.986C14.16 24.3634 13.5918 24.4071 13.2144 24.0837C12.837 23.7602 12.7933 23.192 13.1168 22.8146L19.8147 15.0003L13.1168 7.18605C12.7933 6.80866 12.837 6.24049 13.2144 5.91701Z" fill="white"/>
</g>
</svg>
